<?xml version="1.0" encoding="utf-8"?>
<!-- Generator: Adobe Illustrator 20.1.0, SVG Export Plug-In . SVG Version: 6.00 Build 0)  -->
<svg version="1.1" id="Layer_1" xmlns="http://www.w3.org/2000/svg" xmlns:xlink="http://www.w3.org/1999/xlink" x="0px" y="0px"
	 viewBox="0 0 500 500" style="enable-background:new 0 0 500 500;" xml:space="preserve">
<style type="text/css">
	.st0{opacity:0.35;}
	.st1{fill:#E7E7E7;stroke:#705290;stroke-miterlimit:10;}
	.st2{fill:#705290;}
</style>
<path class="st0" d="M282.2,328.4H124.7V137.6c0-5.5,4.5-10,10-10h137.5c5.5,0,10,4.5,10,10V328.4z"/>
<path class="st1" d="M279.2,325.4H121.7V134.6c0-5.5,4.5-10,10-10h137.5c5.5,0,10,4.5,10,10V325.4z"/>
<path class="st0" d="M269.2,125.6H131.7c-5.5,0-10,4.5-10,10v33.3h157.5v-33.3C279.2,130.1,274.7,125.6,269.2,125.6z M165.3,141.6
	c-3.1,0-5.6-2.5-5.6-5.6c0-3.1,2.5-5.6,5.6-5.6c3.1,0,5.6,2.5,5.6,5.6C171,139.1,168.4,141.6,165.3,141.6z M235.3,141.6
	c-3.1,0-5.6-2.5-5.6-5.6c0-3.1,2.5-5.6,5.6-5.6c3.1,0,5.6,2.5,5.6,5.6C241,139.1,238.4,141.6,235.3,141.6z"/>
<path class="st2" d="M269.2,124.6H131.7c-5.5,0-10,4.5-10,10v33.3h157.5v-33.3C279.2,129.1,274.7,124.6,269.2,124.6z M165.3,140.6
	c-3.1,0-5.6-2.5-5.6-5.6c0-3.1,2.5-5.6,5.6-5.6c3.1,0,5.6,2.5,5.6,5.6C171,138.1,168.4,140.6,165.3,140.6z M235.3,140.6
	c-3.1,0-5.6-2.5-5.6-5.6c0-3.1,2.5-5.6,5.6-5.6c3.1,0,5.6,2.5,5.6,5.6C241,138.1,238.4,140.6,235.3,140.6z"/>
<g>
	<path class="st2" d="M178.7,263.2h-8.8v-55.9c-2.1,2-4.9,4-8.3,6s-6.5,3.5-9.2,4.5v-8.5c4.9-2.3,9.2-5.1,12.9-8.4
		c3.7-3.3,6.3-6.5,7.8-9.6h5.7V263.2z"/>
	<path class="st2" d="M201.2,244.5l9.2-0.8c0.7,4.5,2.3,7.9,4.8,10.1c2.5,2.3,5.5,3.4,9,3.4c4.2,0,7.8-1.6,10.7-4.8
		s4.4-7.4,4.4-12.7c0-5-1.4-9-4.2-11.8c-2.8-2.9-6.5-4.3-11-4.3c-2.8,0-5.4,0.6-7.7,1.9c-2.3,1.3-4.1,3-5.4,5l-8.2-1.1l6.9-36.7
		h35.5v8.4h-28.5l-3.9,19.2c4.3-3,8.8-4.5,13.5-4.5c6.2,0,11.5,2.2,15.8,6.5s6.4,9.9,6.4,16.7c0,6.5-1.9,12.1-5.7,16.8
		c-4.6,5.8-10.8,8.7-18.8,8.7c-6.5,0-11.8-1.8-15.9-5.5C204.1,255.3,201.7,250.5,201.2,244.5z"/>
</g>
<g>
	<path class="st2" d="M162.6,300.6l6.6-17.2h2.4l7,17.2h-2.6l-2-5.2h-7.2l-1.9,5.2H162.6z M167.6,293.6h5.8l-1.8-4.8
		c-0.5-1.4-1-2.6-1.2-3.6c-0.2,1.1-0.5,2.2-0.9,3.3L167.6,293.6z"/>
	<path class="st2" d="M180.2,288.2h9.8v12.4h-2.1v-10.7h-5.6v10.7h-2.1V288.2z"/>
	<path class="st2" d="M193.2,305.4v-17.2h1.9v1.6c0.5-0.6,1-1.1,1.5-1.4s1.3-0.5,2.1-0.5c1.1,0,2,0.3,2.8,0.8s1.4,1.3,1.8,2.3
		s0.6,2.1,0.6,3.3c0,1.3-0.2,2.4-0.7,3.4s-1.1,1.8-2,2.3s-1.8,0.8-2.7,0.8c-0.7,0-1.3-0.1-1.9-0.4s-1-0.7-1.4-1.1v6.1H193.2z
		 M195.1,294.5c0,1.6,0.3,2.8,1,3.6s1.4,1.1,2.4,1.1c0.9,0,1.7-0.4,2.4-1.2s1-2,1-3.7c0-1.6-0.3-2.8-1-3.6s-1.4-1.2-2.3-1.2
		c-0.9,0-1.7,0.4-2.4,1.3S195.1,292.9,195.1,294.5z"/>
	<path class="st2" d="M215.1,296.6l2.2,0.3c-0.3,1.3-1,2.3-1.9,3s-2.1,1.1-3.6,1.1c-1.8,0-3.3-0.6-4.3-1.7s-1.6-2.7-1.6-4.7
		c0-2.1,0.5-3.7,1.6-4.9s2.5-1.7,4.2-1.7c1.7,0,3,0.6,4.1,1.7s1.6,2.7,1.6,4.8c0,0.1,0,0.3,0,0.6H208c0.1,1.4,0.5,2.4,1.2,3.1
		s1.6,1.1,2.6,1.1c0.8,0,1.4-0.2,2-0.6S214.8,297.5,215.1,296.6z M208.2,293.2h6.9c-0.1-1-0.4-1.8-0.8-2.4c-0.7-0.8-1.5-1.2-2.6-1.2
		c-1,0-1.8,0.3-2.4,1S208.2,292.1,208.2,293.2z"/>
	<path class="st2" d="M220.1,288.2h9.8v12.4h-2.1v-10.7h-5.6v6.2c0,1.4,0,2.4-0.1,2.9s-0.4,0.9-0.8,1.2s-1,0.5-1.8,0.5
		c-0.5,0-1.1,0-1.7-0.1v-1.8h0.9c0.4,0,0.8,0,0.9-0.1s0.3-0.2,0.4-0.4s0.1-0.8,0.1-1.9V288.2z"/>
	<path class="st2" d="M233.1,288.2h2.1v4.9h2.7c1.7,0,3.1,0.3,4,1s1.4,1.6,1.4,2.8c0,1-0.4,1.9-1.2,2.7s-2,1.1-3.8,1.1h-5.3V288.2z
		 M235.2,298.9h2.2c1.3,0,2.3-0.2,2.9-0.5s0.9-0.8,0.9-1.5c0-0.5-0.2-1-0.6-1.4s-1.4-0.6-2.8-0.6h-2.5V298.9z"/>
</g>
</svg>
